<?xml version="1.0"?>
<svg xmlns="http://www.w3.org/2000/svg" xmlns:xlink="http://www.w3.org/1999/xlink" xmlns:svgjs="http://svgjs.com/svgjs" version="1.1" width="512" height="512" x="0" y="0" viewBox="0 0 512 512" style="enable-background:new 0 0 512 512" xml:space="preserve" class=""><g><g xmlns="http://www.w3.org/2000/svg" id="Flat"><path d="m392 88v288a111.986 111.986 0 0 1 -112 112l-24-72-24 72a111.979 111.979 0 0 1 -111.92-108.09c-.06-1.3-.08-2.6-.08-3.91v-288l64-24 16-40h112l16 40 61.01 22.88z" fill="#ffffff" data-original="#3086cd" style="" class=""/><path d="m392 88v288a111.986 111.986 0 0 1 -112 112l-24-72-24 72a111.979 111.979 0 0 1 -111.92-108.09c101.57-44.98 202.66-134.53 268.93-293.03z" fill="#fdfdfd" data-original="#2d7dbf" style="" class=""/><path d="m312 24-56 80-56-80z" fill="#ffffff" data-original="#3086cd" style="" class=""/><path d="m284 64-28 40-28-40z" fill="#fdfdfd" data-original="#2d7dbf" style="" class=""/><path d="m184 64 16-40 56 80-40 32z" fill="#d1d1d1" data-original="#348fd9" style="" class=""/><path d="m328 64-16-40-56 80 40 32z" fill="#d1d1d1" data-original="#348fd9" style="" class=""/><path d="m120 88-43.23 21.615a16 16 0 0 0 -7.155 7.155l-43.926 87.852a15.994 15.994 0 0 0 -1.689 7.155v128.446a15.994 15.994 0 0 0 1.689 7.155l70.311 140.622 48-32-24-104z" fill="#fdfdfd" data-original="#2d7dbf" style="" class=""/><path d="m392 88 47.43 20.327a16 16 0 0 1 9.6 12.94l38.97 350.733-56 16-40-192z" fill="#fdfdfd" data-original="#2d7dbf" style="" class=""/><g fill="#2a71ad"><path d="m120 360a8 8 0 0 1 -7.643-5.649l-32-104a8 8 0 1 1 15.292-4.706l32 104a8.006 8.006 0 0 1 -7.649 10.355z" fill="#e9e9e9" data-original="#2a71ad" style="" class=""/><path d="m96.008 448a8 8 0 0 1 -4.124-14.861l40-24a8 8 0 0 1 8.232 13.72l-40 24a7.966 7.966 0 0 1 -4.108 1.141z" fill="#e9e9e9" data-original="#2a71ad" style="" class=""/><path d="m447.994 456a8 8 0 0 1 -1.934-15.763l32-8a8 8 0 1 1 3.88 15.522l-32 8a8.007 8.007 0 0 1 -1.946.241z" fill="#e9e9e9" data-original="#2a71ad" style="" class=""/><rect height="320" rx="8" width="16" x="248" y="104" fill="#e9e9e9" data-original="#2a71ad" style="" class=""/></g><path d="m360 256-32 16-32-16v-56h64z" fill="#d1d1d1" data-original="#348fd9" style="" class=""/><path d="m216 160h16v16h-16z" fill="#808080" data-original="#395a8d" style="" class=""/><path d="m216 240h16v16h-16z" fill="#808080" data-original="#395a8d" style="" class=""/><path d="m216 320h16v16h-16z" fill="#808080" data-original="#395a8d" style="" class=""/><path d="m216 400h16v16h-16z" fill="#808080" data-original="#395a8d" style="" class=""/></g></g></svg>
